<?xml version="1.0" standalone="no"?>
<!DOCTYPE svg PUBLIC "-//W3C//DTD SVG 20010904//EN"
 "http://www.w3.org/TR/2001/REC-SVG-20010904/DTD/svg10.dtd">
<svg version="1.0" xmlns="http://www.w3.org/2000/svg"
 width="1806.000000pt" height="1806.000000pt" viewBox="0 0 1806.000000 1806.000000"
 preserveAspectRatio="xMidYMid meet">
<metadata>
Created by potrace 1.11, written by Peter Selinger 2001-2013
</metadata>
<g transform="translate(0.000000,1806.000000) scale(0.100000,-0.100000)"
fill="#000000" stroke="none">
<path d="M4515 13540 l-4510 -4510 4510 -4510 c2480 -2480 4514 -4510 4520
-4510 6 0 2038 2028 4518 4508 l4507 4507 -4513 4513 c-2481 2481 -4514 4512
-4517 4512 -3 0 -2035 -2029 -4515 -4510z m3955 -4512 l0 -6853 -570 570 -570
570 0 2705 0 2705 -570 -570 -570 -570 0 -1565 0 -1565 -575 575 -575 575 0
3425 0 3425 1712 1712 c942 942 1714 1713 1715 1713 2 0 3 -3084 3 -6852z
m2280 3425 c0 -1250 3 -2273 7 -2273 5 0 520 512 1145 1137 l1138 1138 0 -805
0 -805 -907 -907 -908 -908 903 -903 903 -903 -1 -757 c0 -416 -3 -778 -7
-803 l-6 -46 -1133 1133 -1134 1134 0 -2275 0 -2275 -570 -570 -570 -570 0
6835 0 6835 570 -570 570 -570 0 -2272z m-6840 -1945 l0 -803 -337 -337 -338
-338 338 -338 337 -337 -2 -801 -3 -801 -1145 1139 -1145 1138 1140 1140 c627
627 1143 1140 1147 1140 5 0 8 -361 8 -802z m12304 -1711 c-126 -128 -637
-640 -1136 -1136 l-908 -903 0 803 0 804 330 330 330 330 -330 330 -330 330 0
810 0 810 1137 -1137 1137 -1137 -230 -234z"/>
<path d="M6758 12553 l-568 -568 0 -1390 0 -1390 570 570 570 570 -2 1388 -3
1387 -567 -567z"/>
</g>
</svg>
